<svg xmlns="http://www.w3.org/2000/svg" viewBox="0 0 64 64"><g id="_17-Repeat" data-name="17-Repeat"><polygon points="35 39 35 43 32 46 28.38 46 35 39" style="fill:#319aeb"/><path d="M53,54a4,4,0,0,0,4-4v3a4,4,0,0,1-4,4H32l-.07.08L28.69,54Z" style="fill:#2a84c9"/><polygon points="35 60 35 63 23 63 15 55 15 50 25 60 35 60" style="fill:#2a84c9"/><path d="M57,23V50a4,4,0,0,1-4,4H28.69l3.24,3.08L35,60H25L15,50,25,39H35l-6.62,7H48a1,1,0,0,0,1-1V23Z" style="fill:#48befd"/><rect x="7" y="38" width="8" height="3" style="fill:#d65106"/><polygon points="39 22 49 11 49 15 40 25 29 25 29 22 39 22" style="fill:#ff6d04"/><path d="M35.62,15l-2.84,3H15V16a1,1,0,0,1,1-1Z" style="fill:#d65106"/><polygon points="35.31 7 31 7 29 5 29 1 35.31 7" style="fill:#ed9204"/><path d="M32.78,18l2.84-3H16a1,1,0,0,0-1,1V38H7V11a4,4,0,0,1,4-4H35.31L29,1H39L49,11,39,22H29Z" style="fill:#fab503"/><polygon points="40 25 29 25 29 22 39 22 40 25" style="fill:#d65106"/><polygon points="25 60 23 63 35 63 35 60 25 60" style="fill:#1c69a1"/><path d="M39,1H29l6.31,6H15.5a1.5,1.5,0,0,0,0,3H42l4.143,4.143L49,11Z" style="fill:#ffdb02"/><path d="M47,48a2,2,0,0,0-2-2H28.38L35,39H25L15,50H45A2,2,0,0,0,47,48Z" style="fill:#6bdcff"/><path d="M57,28V23H49V45a1,1,0,0,1-1,1H28.385L35,39H25L15,50,25,60H35l-6.308-6H53a4,4,0,0,0,4-4V30" style="fill:none;stroke:#000;stroke-linejoin:round;stroke-width:2px"/><polyline points="15 50 15 55 23 63 35 63 35 60" style="fill:none;stroke:#000;stroke-linejoin:round;stroke-width:2px"/><path d="M40,57H53a4,4,0,0,0,4-4V50" style="fill:none;stroke:#000;stroke-linejoin:round;stroke-width:2px"/><line x1="36" y1="57" x2="38" y2="57" style="fill:none;stroke:#000;stroke-linejoin:round;stroke-width:2px"/><polyline points="35 39 35 43 32 46" style="fill:none;stroke:#000;stroke-linejoin:round;stroke-width:2px"/><path d="M7,33v5h8V16a1,1,0,0,1,1-1H35.615L29,22H39L49,11,39,1H29l6.308,6H11a4,4,0,0,0-4,4V31" style="fill:none;stroke:#000;stroke-linejoin:round;stroke-width:2px"/><polyline points="7 38 7 41 15 41 15 38" style="fill:none;stroke:#000;stroke-linejoin:round;stroke-width:2px"/><line x1="25" y1="18" x2="15" y2="18" style="fill:none;stroke:#000;stroke-linejoin:round;stroke-width:2px"/><line x1="29" y1="18" x2="27" y2="18" style="fill:none;stroke:#000;stroke-linejoin:round;stroke-width:2px"/><polyline points="29 22 29 25 40 25 49 15 49 11" style="fill:none;stroke:#000;stroke-linejoin:round;stroke-width:2px"/><polyline points="29 1 29 5 31 7" style="fill:none;stroke:#000;stroke-linejoin:round;stroke-width:2px"/></g></svg>